<?xml version="1.0" standalone="no"?>
<!DOCTYPE svg PUBLIC "-//W3C//DTD SVG 20010904//EN"
 "http://www.w3.org/TR/2001/REC-SVG-20010904/DTD/svg10.dtd">
<svg version="1.0" xmlns="http://www.w3.org/2000/svg"
 width="4000.000000pt" height="4000.000000pt" viewBox="0 0 4000.000000 4000.000000"
 preserveAspectRatio="xMidYMid meet">
<metadata>
Created by potrace 1.11, written by Peter Selinger 2001-2013
</metadata>
<g transform="translate(0.000000,4000.000000) scale(0.100000,-0.100000)"
fill="#000000" stroke="none">
<path d="M16041 24620 c-791 -76 -1457 -485 -1751 -1075 -73 -147 -115 -273
-142 -430 -28 -164 -21 -399 15 -555 26 -110 74 -250 86 -250 4 0 23 32 42 72
19 40 60 113 93 163 434 666 1345 1029 2252 896 491 -73 918 -274 1242 -586
165 -159 251 -272 348 -459 l51 -99 21 54 c68 183 95 333 96 524 0 276 -69
528 -209 763 -309 519 -893 875 -1590 968 -138 18 -430 26 -554 14z"/>
<path d="M23520 24619 c-877 -78 -1611 -586 -1839 -1274 -55 -166 -74 -283
-74 -460 -1 -201 25 -346 95 -534 l21 -54 51 99 c97 187 183 300 348 459 330
318 758 517 1273 591 159 23 523 24 680 1 505 -72 944 -273 1273 -582 147
-138 285 -323 361 -483 19 -40 38 -72 42 -72 12 0 60 140 86 250 36 156 43
391 15 555 -92 533 -461 991 -1023 1265 -229 112 -514 196 -779 230 -113 15
-412 20 -530 9z"/>
<path d="M11376 17840 c-220 -35 -455 -133 -693 -289 -571 -374 -1024 -994
-1144 -1562 -31 -146 -31 -340 -1 -462 54 -219 188 -391 345 -443 110 -36 255
4 338 93 64 69 83 122 83 228 0 105 -17 153 -84 230 l-43 49 6 81 c14 207 150
497 351 746 l61 77 122 -243 c585 -1169 1340 -2195 2267 -3084 1217 -1167
2677 -2023 4276 -2507 650 -197 1336 -331 2015 -393 647 -60 1362 -52 1994 20
2600 295 4906 1602 6615 3747 383 481 715 972 1041 1542 128 222 348 641 425
807 l53 112 59 -72 c197 -240 341 -545 355 -752 l6 -81 -43 -49 c-67 -77 -84
-125 -84 -230 -1 -78 3 -97 27 -146 53 -108 155 -177 278 -186 118 -10 220 40
312 152 118 143 171 305 170 525 0 224 -57 439 -183 695 -330 673 -1007 1253
-1612 1382 -114 24 -338 24 -428 -1 -146 -40 -301 -137 -362 -227 -147 -220
11 -519 275 -519 83 0 124 13 195 60 50 34 68 40 110 40 58 0 182 -37 286 -85
124 -57 125 -26 -11 -306 -476 -975 -1065 -1810 -1818 -2577 -1527 -1556
-3515 -2545 -5674 -2822 -443 -57 -751 -75 -1261 -75 -511 0 -815 18 -1265 76
-1774 226 -3445 940 -4848 2072 -379 306 -875 781 -1182 1132 -597 684 -1063
1386 -1458 2194 -136 280 -135 249 -12 306 101 47 228 85 287 85 42 0 60 -6
110 -40 71 -47 112 -60 195 -60 125 0 240 72 298 187 26 51 30 69 30 143 0 71
-4 94 -26 140 -56 119 -205 225 -384 275 -72 19 -285 28 -369 15z"/>
</g>
</svg>
